<svg width="29" height="29" viewBox="0 0 29 29" fill="none" xmlns="http://www.w3.org/2000/svg">
<g clip-path="url(#clip0_619_2962)">
<path fill-rule="evenodd" clip-rule="evenodd" d="M14.512 0C6.48724 0 0 6.53506 0 14.6198C0 21.0824 4.1566 26.5529 9.9229 28.489C10.6438 28.6346 10.9079 28.1744 10.9079 27.7874C10.9079 27.4485 10.8841 26.2867 10.8841 25.0762C6.84726 25.9478 6.00661 23.3334 6.00661 23.3334C5.35786 21.6391 4.39661 21.2036 4.39661 21.2036C3.07534 20.308 4.49286 20.308 4.49286 20.308C5.95849 20.4048 6.72755 21.8087 6.72755 21.8087C8.02476 24.0354 10.1151 23.4062 10.956 23.0189C11.076 22.0748 11.4607 21.4213 11.8692 21.0583C8.64945 20.7194 5.26191 19.4608 5.26191 13.8451C5.26191 12.2476 5.83819 10.9406 6.75131 9.92409C6.60725 9.56109 6.10256 8.06011 6.89568 6.05117C6.89568 6.05117 8.121 5.66382 10.8838 7.55186C12.0667 7.23184 13.2866 7.06904 14.512 7.06767C15.7373 7.06767 16.9864 7.23728 18.1398 7.55186C20.903 5.66382 22.1283 6.05117 22.1283 6.05117C22.9214 8.06011 22.4165 9.56109 22.2724 9.92409C23.2096 10.9406 23.7621 12.2476 23.7621 13.8451C23.7621 19.4608 20.3745 20.6951 17.1308 21.0583C17.6595 21.5182 18.1158 22.3894 18.1158 23.7692C18.1158 25.7297 18.092 27.3032 18.092 27.7871C18.092 28.1744 18.3564 28.6346 19.077 28.4893C24.8433 26.5526 28.9999 21.0824 28.9999 14.6198C29.0237 6.53506 22.5127 0 14.512 0Z" fill="white"/>
</g>
<defs>
<clipPath id="clip0_619_2962">
<rect width="29" height="29" fill="white"/>
</clipPath>
</defs>
</svg>
